# xmcd
#
# Track frame offsets: 
#        150
#        15592
#        29547
#        52174
#        65374
#        86482
#        100108
#        115555
#        137914
#        167498
#        189414
#        204390
#        220928
#        255935
#
# Disc length: 3598 seconds
#
# Revision: 0
# Processed by: cddbd v1.5.2PL0 Copyright (c) Steve Scherf et al.
# Submitted via: ExactAudioCopy v0.99pb5
#
DISCID=b70e0c0e
DTITLE=Be Still My Soul And Listen - Christina Jaccard
DYEAR=2003
DGENRE=Soul
TTITLE0=I'm Gonna Live The Life I Sing About
TTITLE1=Walk On By Faith
TTITLE2=If We Never Needed The Lord Before
TTITLE3=I See God
TTITLE4=Are You Ready
TTITLE5=Compassion
TTITLE6=Don't Take Everybody To Be Your Friend
TTITLE7=Be Still And Listen
TTITLE8=The Spirit In The Dark
TTITLE9=I Belive
TTITLE10=That's All
TTITLE11=Amen
TTITLE12=Gott Aus Gott Und Licht Aus Licht
TTITLE13=He's God
EXTD=
EXTT0=
EXTT1=
EXTT2=
EXTT3=
EXTT4=
EXTT5=
EXTT6=
EXTT7=
EXTT8=
EXTT9=
EXTT10=
EXTT11=
EXTT12=
EXTT13=
PLAYORDER=
